<svg width="128" height="81" viewBox="0 0 128 81" fill="none" xmlns="http://www.w3.org/2000/svg">
<path d="M5.5 1.31445H43.7019C44.8469 1.31445 45.9371 1.80519 46.6963 2.66241L52.6282 9.36009C53.1976 10.003 54.0152 10.3711 54.874 10.3711H122.5C124.709 10.3711 126.5 12.1619 126.5 14.3711V75.3145C126.5 77.5236 124.709 79.3145 122.5 79.3145H12.1087C10.9636 79.3145 9.87342 78.8237 9.11422 77.9665L1.75139 69.6531L1.00278 70.3161L1.75139 69.6531C1.58942 69.4702 1.5 69.2344 1.5 68.9901V5.31445C1.5 3.10531 3.29086 1.31445 5.5 1.31445Z" stroke="#CEFF44" stroke-width="2"/>
<g clip-path="url(#clip0_447_759)">
<path d="M43.3322 0.314453H5.5C2.73858 0.314453 0.5 2.55302 0.5 5.31445V67.8638C0.5 69.0785 0.942192 70.2517 1.74398 71.1642L8.29076 78.6148C9.24006 79.6952 10.6086 80.3145 12.0468 80.3145H121.5C124.261 80.3145 126.5 78.0759 126.5 75.3145V14.3711C126.5 11.6096 124.261 9.37106 121.5 9.37106H55.8152C54.377 9.37106 53.0085 8.75178 52.0592 7.67141L47.0882 2.0141C46.1389 0.933734 44.7703 0.314453 43.3322 0.314453Z" fill="#CEFF44"/>
</g>
<defs>
<clipPath id="clip0_447_759">
<rect width="95.2634" height="80" fill="white" transform="translate(0.5 0.314453)"/>
</clipPath>
</defs>
</svg>
