<svg width="128" height="80" viewBox="0 0 128 80" fill="none" xmlns="http://www.w3.org/2000/svg">
<path d="M5.5 1H43.7019C44.8469 1 45.9371 1.49074 46.6963 2.34795L52.6282 9.04564C53.1976 9.68855 54.0152 10.0566 54.874 10.0566H122.5C124.709 10.0566 126.5 11.8475 126.5 14.0566V75C126.5 77.2091 124.709 79 122.5 79H12.1087C10.9636 79 9.87342 78.5093 9.11422 77.6521L1.75139 69.3386L1.00278 70.0017L1.75139 69.3386C1.58942 69.1558 1.5 68.9199 1.5 68.6756V4.99999C1.5 2.79086 3.29086 1 5.5 1Z" stroke="#CEFF44" stroke-width="2"/>
<g clip-path="url(#clip0_447_741)">
<path d="M43.3322 0H5.5C2.73858 0 0.5 2.23857 0.5 4.99999V68.6801C0.5 69.166 0.676877 69.6353 0.997593 70.0003L8.29076 78.3004C9.24006 79.3807 10.6086 80 12.0468 80H121.5C124.261 80 126.5 77.7614 126.5 75V14.0566C126.5 11.2952 124.261 9.0566 121.5 9.0566H54.4577C53.8824 9.0566 53.335 8.80889 52.9552 8.37675L47.0882 1.69965C46.1389 0.619281 44.7703 0 43.3322 0Z" fill="#CEFF44"/>
</g>
<defs>
<clipPath id="clip0_447_741">
<rect width="1" height="80" fill="white" transform="translate(0.5)"/>
</clipPath>
</defs>
</svg>
