<svg width="128" height="81" viewBox="0 0 128 81" fill="none" xmlns="http://www.w3.org/2000/svg">
<path d="M5.40729 1.5H43.2582C44.4001 1.5 45.4875 1.98798 46.2465 2.84101L52.1162 9.43764C52.6855 10.0774 53.5011 10.4434 54.3574 10.4434H121.407C123.616 10.4434 125.407 12.2343 125.407 14.4434V74.5C125.407 76.7091 123.616 78.5 121.407 78.5H11.9353C10.7935 78.5 9.70605 78.012 8.94701 77.159L1.66022 68.9698C1.4973 68.7867 1.40729 68.5501 1.40729 68.3051V5.50001C1.40729 3.29087 3.19815 1.5 5.40729 1.5Z" stroke="#CEFF44" stroke-width="2"/>
<g clip-path="url(#clip0_447_768)">
<path d="M43.2582 0.5H5.40729C2.64586 0.5 0.407288 2.73859 0.407288 5.50001V67.1636C0.407288 68.389 0.857328 69.5718 1.67194 70.4873L8.19995 77.8237C9.14874 78.89 10.508 79.5 11.9353 79.5H121.407C124.169 79.5 126.407 77.2614 126.407 74.5V14.4434C126.407 11.682 124.169 9.4434 121.407 9.4434H55.7037C54.2764 9.4434 52.9172 8.83342 51.9684 7.76713L46.9936 2.17627C46.0448 1.10998 44.6855 0.5 43.2582 0.5Z" fill="#CEFF44"/>
</g>
<defs>
<clipPath id="clip0_447_768">
<rect width="126.554" height="79.4969" fill="white" transform="translate(0.407288 0.5)"/>
</clipPath>
</defs>
</svg>
